<?xml version="1.0" encoding="UTF-8" standalone="no"?>
<svg width="300px" height="300px" viewBox="0 0 300 300" version="1.1" xmlns="http://www.w3.org/2000/svg" xmlns:xlink="http://www.w3.org/1999/xlink" style="background: #FFFFFF;">
    <!-- Generator: Sketch 41.2 (35397) - http://www.bohemiancoding.com/sketch -->
    <title>Artboard</title>
    <desc>Created with Sketch.</desc>
    <defs></defs>
    <g id="Page-1" stroke="none" stroke-width="1" fill="none" fill-rule="evenodd">
        <g id="Artboard">
            <g id="Group-12" transform="translate(16.000000, 84.000000)">
                <g id="Birds" transform="translate(-0.000000, -0.000000)">
                    <ellipse id="Oval" fill="#DBF0F1" opacity="0.635902519" cx="133.217251" cy="129.604494" rx="58.5175202" ry="3.19550562"></ellipse>
                    <g id="hearts" opacity="0.6" transform="translate(109.472776, 0.000000)" fill="#8AD2F3">
                        <g id="Group">
                            <path d="M13.9486874,0.120859101 C8.61300116,-0.830373862 8.17724733,4.14040948 8.16437696,4.31501439 L8.16069971,4.30410158 C8.16069971,4.30410158 5.05710277,0.131771908 1.0010987,3.8330321 C1.0010987,3.8330321 -2.79565942,7.3833318 4.39887545,12.8833863 C4.39887545,12.8833863 9.18665179,16.0662881 11.9611351,17.2248644 L11.9666509,17.2412336 C13.6784097,14.7913086 15.993237,9.5622555 15.993237,9.5622555 C19.0784477,1.10119288 13.9486874,0.120859101 13.9486874,0.120859101" id="Fill-1"></path>
                            <path d="M31.9622817,17.163705 C28.9542932,14.5664571 26.7792013,17.5456532 26.7038177,17.6493249 L26.7074949,17.6420497 C26.7074949,17.6420497 26.3397702,13.8462118 22.3628269,14.6664911 C22.3628269,14.6664911 18.6065185,15.490408 21.0518882,21.6561437 C21.0518882,21.6561437 22.8592554,25.4574379 24.1701941,27.2271314 L24.1665169,27.239863 C26.1853258,26.3322812 29.6456157,23.893269 29.6456157,23.893269 C34.8286962,19.7009325 31.9622817,17.163705 31.9622817,17.163705" id="Fill-3"></path>
                        </g>
                    </g>
                    <g id="bird" transform="translate(0.000000, 21.840606)">
                        <path d="M75.1279665,23.314344 C45.5513047,55.487547 0,105.14163 0,105.14163 C0,105.14163 138.166182,118.264088 122.509102,13.202528 C122.509102,13.202528 117.146915,-22.394951 75.1279665,23.314344 Z" id="Fill-5" fill="#72CAF2" opacity="0.3"></path>
                        <path d="M118.965554,12.4922916 C119.565705,12.4964557 131.750584,16.1705775 131.750584,16.1705775 L118.910995,19.2464573 L118.965554,12.4922916 Z" id="Fill-7" fill="#8AD2F3" opacity="0.46"></path>
                        <path d="M108.606881,14.446351 C108.94263,15.8191151 108.094864,17.2029834 106.7113,17.5361112 C105.326336,17.870627 103.932979,17.0280913 103.595832,15.6553273 C103.260083,14.2825632 104.109247,12.8986949 105.492812,12.5655671 C106.876376,12.2310513 108.271132,13.073587 108.606881,14.446351" id="Fill-9" fill="#8AD2F3" opacity="0.8"></path>
                        <path d="M78.3413613,40.2529396 L5.59581152,49.7110204 C5.59581152,49.7110204 37.8259127,96.613985 78.3413613,40.2529396" id="Fill-11" fill="#8AD2F3" opacity="0.4" transform="translate(41.968586, 54.133264) rotate(-6.000000) translate(-41.968586, -54.133264) "></path>
                    </g>
                    <g id="bird" transform="translate(201.200000, 75.040606) scale(-1, 1) translate(-201.200000, -75.040606) translate(135.200000, 21.840606)">
                        <path d="M75.1279665,23.314344 C45.5513047,55.487547 0,105.14163 0,105.14163 C0,105.14163 138.166182,118.264088 122.509102,13.202528 C122.509102,13.202528 117.146915,-22.394951 75.1279665,23.314344 Z" id="Fill-5" fill="#D4EFFB"></path>
                        <path d="M118.965554,12.4922916 C119.565705,12.4964557 131.750584,16.1705775 131.750584,16.1705775 L118.910995,19.2464573 L118.965554,12.4922916 Z" id="Fill-7" fill="#8AD2F3" opacity="0.46"></path>
                        <path d="M108.606881,14.446351 C108.94263,15.8191151 108.094864,17.2029834 106.7113,17.5361112 C105.326336,17.870627 103.932979,17.0280913 103.595832,15.6553273 C103.260083,14.2825632 104.109247,12.8986949 105.492812,12.5655671 C106.876376,12.2310513 108.271132,13.073587 108.606881,14.446351" id="Fill-9" fill="#99D8F5"></path>
                        <path d="M78.3413613,34.70081 L5.59581152,44.1588908 C5.59581152,44.1588908 37.8259127,91.0618554 78.3413613,34.70081" id="Fill-11" fill="#8AD2F3" opacity="0.4" transform="translate(41.968586, 48.581134) rotate(30.000000) translate(-41.968586, -48.581134) "></path>
                    </g>
                    <g id="Bird" transform="translate(87.200000, 101.600000)" fill="#8AD2F3" opacity="0.4">
                        <rect id="Rectangle-6" x="0.159162304" y="0.427906977" width="3.1078534" height="27.7953488" rx="1.5539267"></rect>
                        <rect id="Rectangle-6" x="7.92879581" y="0.427906977" width="3.1078534" height="27.7953488" rx="1.5539267"></rect>
                        <rect id="Rectangle-6" x="80.9633508" y="0.427906977" width="3.1078534" height="27.7953488" rx="1.5539267"></rect>
                        <rect id="Rectangle-6" x="88.7329843" y="0.427906977" width="3.1078534" height="27.7953488" rx="1.5539267"></rect>
                    </g>
                </g>
            </g>
        </g>
    </g>
</svg>